<?xml version="1.0" encoding="utf-8"?>
<!-- Generator: Adobe Illustrator 25.0.1, SVG Export Plug-In . SVG Version: 6.00 Build 0)  -->
<svg version="1.1" id="Capa_1" xmlns="http://www.w3.org/2000/svg" xmlns:xlink="http://www.w3.org/1999/xlink" x="0px" y="0px"
	 viewBox="0 0 430.5 80.7" style="enable-background:new 0 0 430.5 80.7;" xml:space="preserve">
<style type="text/css">
	.st0{fill-rule:evenodd;clip-rule:evenodd;fill:#FF5C00;}
	.st1{fill-rule:evenodd;clip-rule:evenodd;fill:#0D81FF;}
	.st2{fill:#FF5C00;}
	.st3{fill:#0D81FF;}
</style>
<path class="st0" d="M28.9,13.2h9.6v67.3h-9.6V13.2z M9.6,46.9v33.7H0V46.9H9.6z"/>
<path class="st1" d="M24,32.5v48.1h-9.6V32.5H24z"/>
<path class="st1" d="M67.3,70.9v-24H77v24c0,5.3-4.3,9.6-9.6,9.6h-24v-9.6H67.3z"/>
<path class="st1" d="M46.5,0l43.3,38.5l-6.4,7.2L40.1,7.2L46.5,0z"/>
<path class="st2" d="M139.3,80.7c-5,0-9.4-1.1-13.2-3.2c-3.8-2.1-6.8-5.1-8.9-9c-2.1-3.9-3.1-8.5-3.1-13.6V37c0-5.1,1-9.6,3.1-13.5
	c2.1-3.9,5.1-7,8.9-9.1c3.9-2.1,8.3-3.2,13.4-3.2h10.9c4.8,0,9.1,1,12.8,2.9c3.7,1.9,6.5,4.7,8.5,8.2c2.1,3.6,3.1,7.7,3.1,12.3
	h-13.2c0-3.5-1-6.3-3.1-8.4c-2.1-2.1-4.8-3.2-8.1-3.2h-10.9c-3.6,0-6.5,1.4-8.7,4.1c-2.2,2.7-3.3,6.1-3.3,10.5v16.7
	c0,4.3,1.1,7.9,3.2,10.6c2.2,2.7,5.1,4,8.6,4h11.4c3.3,0,6-1.2,8.1-3.6c2.2-2.4,3.3-5.4,3.3-8.9v-2.1h-18.8V42.5h32v13.8
	c0,4.7-1,8.9-3.1,12.6c-2.1,3.7-5,6.6-8.7,8.6c-3.8,2.1-8,3.1-12.8,3.1H139.3z M203.4,80.7c-4.1,0-7.7-0.8-10.9-2.3
	c-3.1-1.6-5.5-3.9-7.3-6.8c-1.7-2.9-2.5-6.3-2.5-10.1V50.1c0-3.8,0.9-7.2,2.6-10.1c1.7-3,4.2-5.3,7.3-6.9c3.2-1.6,6.8-2.4,10.9-2.4
	h8.7c4.1,0,7.7,0.8,10.8,2.4c3.2,1.6,5.6,3.9,7.4,6.9c1.7,2.9,2.6,6.3,2.6,10.1v11.3c0,3.8-0.9,7.2-2.6,10.1
	c-1.7,2.9-4.2,5.2-7.4,6.8c-3.1,1.6-6.7,2.3-10.9,2.3H203.4z M211.9,69.3c2.4,0,4.3-0.8,5.7-2.4c1.4-1.7,2.1-3.8,2.1-6.5V51
	c0-2.7-0.7-4.8-2.1-6.4c-1.4-1.7-3.3-2.5-5.6-2.5h-8.3c-2.3,0-4.2,0.8-5.6,2.5c-1.4,1.6-2.1,3.8-2.1,6.4v9.4c0,2.7,0.7,4.8,2.1,6.5
	c1.4,1.6,3.3,2.4,5.5,2.4H211.9z"/>
<path class="st3" d="M260.7,80.7c-4.4,0-8.3-1-11.6-3c-3.3-2.1-5.9-4.9-7.8-8.6c-1.8-3.8-2.7-8.1-2.7-12.9h13.2
	c0,3.8,0.8,6.9,2.4,9.2c1.7,2.3,3.8,3.5,6.5,3.5h7.5c2.7,0,4.8-1.2,6.4-3.6c1.7-2.5,2.5-5.7,2.5-9.6V12h13.4v44.2
	c0,4.8-0.9,9.1-2.7,12.8c-1.8,3.7-4.4,6.6-7.7,8.6c-3.3,2-7.1,3-11.3,3H260.7z M320.1,80.7c-4.1,0-7.7-0.8-10.9-2.3
	c-3.1-1.6-5.5-3.9-7.3-6.8c-1.7-2.9-2.5-6.3-2.5-10.1V50.1c0-3.8,0.9-7.2,2.6-10.1c1.7-3,4.2-5.3,7.3-6.9c3.2-1.6,6.8-2.4,10.9-2.4
	h8.7c4.1,0,7.7,0.8,10.8,2.4c3.2,1.6,5.6,3.9,7.4,6.9c1.7,2.9,2.6,6.3,2.6,10.1v11.3c0,3.8-0.9,7.2-2.6,10.1
	c-1.7,2.9-4.2,5.2-7.4,6.8c-3.1,1.6-6.7,2.3-10.9,2.3H320.1z M328.6,69.3c2.4,0,4.3-0.8,5.7-2.4c1.4-1.7,2.1-3.8,2.1-6.5V51
	c0-2.7-0.7-4.8-2.1-6.4c-1.4-1.7-3.3-2.5-5.6-2.5h-8.3c-2.3,0-4.2,0.8-5.6,2.5c-1.4,1.6-2.1,3.8-2.1,6.4v9.4c0,2.7,0.7,4.8,2.1,6.5
	c1.4,1.6,3.3,2.4,5.5,2.4H328.6z M414.2,30.7c4.9,0,8.9,1.6,11.8,4.9c3,3.2,4.5,7.3,4.5,12.5v31.8h-13.2V48.1c0-1.8-0.4-3.2-1.3-4.3
	c-0.8-1.1-1.9-1.6-3.3-1.6h-4.2c-1.8,0-3.4,0.7-4.8,2c-1.4,1.3-2.2,3-2.5,5.2v30.5h-13.2V48.2c0-1.8-0.4-3.3-1.3-4.4
	c-0.8-1.1-1.9-1.6-3.3-1.6h-3.8c-1.9,0-3.5,0.8-4.9,2.5c-1.4,1.7-2.3,3.9-2.7,6.6v28.6H359V31.5h12.2v5.6c1.2-1.9,2.7-3.5,4.5-4.7
	c1.9-1.2,3.8-1.7,5.6-1.7h5.4c2.3,0,4.4,0.6,6.3,1.8c1.9,1.2,3.5,2.9,4.6,5.1c1.4-2.2,3.1-3.9,5-5.1c2-1.2,4.1-1.8,6.3-1.8H414.2z"
	/>
</svg>
